<?xml version="1.0" encoding="UTF-8"?>
<svg width="432.64899mm" height="432.64899mm" viewBox="0 0 432.64899 432.64898" xmlns="http://www.w3.org/2000/svg">
  <g transform="translate(-228.61791,-250.41993)">
    <g transform="matrix(0.49905371,0,0,0.45469912,222.90704,245.27802)" style="fill:none;stroke:#000;stroke-width:2.8;stroke-linecap:square">
      <!-- 縦のグリッド線 (内側 8 本) -->
      <line x1="112.23779" y1="17.594574" x2="112.23779" y2="956.662494"/>
      <line x1="207.30469" y1="17.594574" x2="207.30469" y2="956.662494"/>
      <line x1="302.37158" y1="17.594574" x2="302.37158" y2="956.662494"/>
      <line x1="397.43848" y1="17.594574" x2="397.43848" y2="956.662494"/>
      <line x1="492.50537" y1="17.594574" x2="492.50537" y2="956.662494"/>
      <line x1="587.57227" y1="17.594574" x2="587.57227" y2="956.662494"/>
      <line x1="682.63916" y1="17.594574" x2="682.63916" y2="956.662494"/>
      <line x1="777.70605" y1="17.594574" x2="777.70605" y2="956.662494"/>
      <!-- 横のグリッド線 (内側 8 本) -->
      <line x1="17.170895" y1="121.93546" x2="872.773013" y2="121.93546"/>
      <line x1="17.170895" y1="226.27634" x2="872.773013" y2="226.27634"/>
      <line x1="17.170895" y1="330.61722" x2="872.773013" y2="330.61722"/>
      <line x1="17.170895" y1="434.9581"  x2="872.773013" y2="434.9581"/>
      <line x1="17.170895" y1="539.29901" x2="872.773013" y2="539.29901"/>
      <line x1="17.170895" y1="643.63989" x2="872.773013" y2="643.63989"/>
      <line x1="17.170895" y1="747.98077" x2="872.773013" y2="747.98077"/>
      <line x1="17.170895" y1="852.32166" x2="872.773013" y2="852.32166"/>
    </g>
  </g>
  <g transform="translate(1.0583324,1.0583338)" style="fill:#fff;fill-opacity:0;stroke:#000;stroke-width:3.61719;stroke-linecap:square">
    <!-- 外枠 -->
    <rect x="0.7502625" y="0.75026119" width="429.0318" height="429.0318"/>
  </g>
</svg>
